<svg width="164" height="44" viewBox="0 0 164 44" fill="none" xmlns="http://www.w3.org/2000/svg">
<path d="M63.3 27.7128H71.15V30.6628H59.25V27.9628L67.05 16.1628H59.25V13.2128H71.15V15.9128L63.3 27.7128ZM73.2293 23.6878C73.2293 22.2878 73.5043 21.0462 74.0543 19.9628C74.621 18.8795 75.3793 18.0462 76.3293 17.4628C77.296 16.8795 78.371 16.5878 79.5543 16.5878C80.5876 16.5878 81.4876 16.7962 82.2543 17.2128C83.0376 17.6295 83.6626 18.1545 84.1293 18.7878V16.8128H87.6543V30.6628H84.1293V28.6378C83.6793 29.2878 83.0543 29.8295 82.2543 30.2628C81.471 30.6795 80.5626 30.8878 79.5293 30.8878C78.3626 30.8878 77.296 30.5878 76.3293 29.9878C75.3793 29.3878 74.621 28.5462 74.0543 27.4628C73.5043 26.3628 73.2293 25.1045 73.2293 23.6878ZM84.1293 23.7378C84.1293 22.8878 83.9626 22.1628 83.6293 21.5628C83.296 20.9462 82.846 20.4795 82.2793 20.1628C81.7126 19.8295 81.1043 19.6628 80.4543 19.6628C79.8043 19.6628 79.2043 19.8212 78.6543 20.1378C78.1043 20.4545 77.6543 20.9212 77.3043 21.5378C76.971 22.1378 76.8043 22.8545 76.8043 23.6878C76.8043 24.5212 76.971 25.2545 77.3043 25.8878C77.6543 26.5045 78.1043 26.9795 78.6543 27.3128C79.221 27.6462 79.821 27.8128 80.4543 27.8128C81.1043 27.8128 81.7126 27.6545 82.2793 27.3378C82.846 27.0045 83.296 26.5378 83.6293 25.9378C83.9626 25.3212 84.1293 24.5878 84.1293 23.7378ZM110.098 13.2128V30.6628H106.598V19.3128L101.923 30.6628H99.2727L94.5727 19.3128V30.6628H91.0727V13.2128H95.0477L100.598 26.1878L106.148 13.2128H110.098ZM126.633 16.8128V30.6628H123.108V28.9128C122.658 29.5128 122.066 29.9878 121.333 30.3378C120.616 30.6712 119.833 30.8378 118.983 30.8378C117.9 30.8378 116.941 30.6128 116.108 30.1628C115.275 29.6962 114.616 29.0212 114.133 28.1378C113.666 27.2378 113.433 26.1712 113.433 24.9378V16.8128H116.933V24.4378C116.933 25.5378 117.208 26.3878 117.758 26.9878C118.308 27.5712 119.058 27.8628 120.008 27.8628C120.975 27.8628 121.733 27.5712 122.283 26.9878C122.833 26.3878 123.108 25.5378 123.108 24.4378V16.8128H126.633ZM135.386 30.8878C134.253 30.8878 133.236 30.6878 132.336 30.2878C131.436 29.8712 130.72 29.3128 130.186 28.6128C129.67 27.9128 129.386 27.1378 129.336 26.2878H132.861C132.928 26.8212 133.186 27.2628 133.636 27.6128C134.103 27.9628 134.678 28.1378 135.361 28.1378C136.028 28.1378 136.545 28.0045 136.911 27.7378C137.295 27.4712 137.486 27.1295 137.486 26.7128C137.486 26.2628 137.253 25.9295 136.786 25.7128C136.336 25.4795 135.611 25.2295 134.611 24.9628C133.578 24.7128 132.728 24.4545 132.061 24.1878C131.411 23.9212 130.845 23.5128 130.361 22.9628C129.895 22.4128 129.661 21.6712 129.661 20.7378C129.661 19.9712 129.878 19.2712 130.311 18.6378C130.761 18.0045 131.395 17.5045 132.211 17.1378C133.045 16.7712 134.02 16.5878 135.136 16.5878C136.786 16.5878 138.103 17.0045 139.086 17.8378C140.07 18.6545 140.611 19.7628 140.711 21.1628H137.361C137.311 20.6128 137.078 20.1795 136.661 19.8628C136.261 19.5295 135.72 19.3628 135.036 19.3628C134.403 19.3628 133.911 19.4795 133.561 19.7128C133.228 19.9462 133.061 20.2712 133.061 20.6878C133.061 21.1545 133.295 21.5128 133.761 21.7628C134.228 21.9962 134.953 22.2378 135.936 22.4878C136.936 22.7378 137.761 22.9962 138.411 23.2628C139.061 23.5295 139.62 23.9462 140.086 24.5128C140.57 25.0628 140.82 25.7962 140.836 26.7128C140.836 27.5128 140.611 28.2295 140.161 28.8628C139.728 29.4962 139.095 29.9962 138.261 30.3628C137.445 30.7128 136.486 30.8878 135.386 30.8878ZM145.484 15.1628C144.868 15.1628 144.351 14.9712 143.934 14.5878C143.534 14.1878 143.334 13.6962 143.334 13.1128C143.334 12.5295 143.534 12.0462 143.934 11.6628C144.351 11.2628 144.868 11.0628 145.484 11.0628C146.101 11.0628 146.609 11.2628 147.009 11.6628C147.426 12.0462 147.634 12.5295 147.634 13.1128C147.634 13.6962 147.426 14.1878 147.009 14.5878C146.609 14.9712 146.101 15.1628 145.484 15.1628ZM147.209 16.8128V30.6628H143.709V16.8128H147.209ZM149.767 23.7378C149.767 22.3045 150.059 21.0545 150.642 19.9878C151.226 18.9045 152.034 18.0712 153.067 17.4878C154.101 16.8878 155.284 16.5878 156.617 16.5878C158.334 16.5878 159.751 17.0212 160.867 17.8878C162.001 18.7378 162.759 19.9378 163.142 21.4878H159.367C159.167 20.8878 158.826 20.4212 158.342 20.0878C157.876 19.7378 157.292 19.5628 156.592 19.5628C155.592 19.5628 154.801 19.9295 154.217 20.6628C153.634 21.3795 153.342 22.4045 153.342 23.7378C153.342 25.0545 153.634 26.0795 154.217 26.8128C154.801 27.5295 155.592 27.8878 156.592 27.8878C158.009 27.8878 158.934 27.2545 159.367 25.9878H163.142C162.759 27.4878 162.001 28.6795 160.867 29.5628C159.734 30.4462 158.317 30.8878 156.617 30.8878C155.284 30.8878 154.101 30.5962 153.067 30.0128C152.034 29.4128 151.226 28.5795 150.642 27.5128C150.059 26.4295 149.767 25.1712 149.767 23.7378Z" fill="white"/>
<path d="M17.3674 16.0453C17.3674 13.9899 19.0336 12.3237 21.089 12.3237V34.157H17.3674V16.0453Z" fill="#B4006E"/>
<path fill-rule="evenodd" clip-rule="evenodd" d="M9.42801 43.337C14.635 43.337 21.089 39.3819 21.089 34.175C21.089 28.968 14.635 24.4809 9.42801 24.4809V43.337Z" fill="#4E3FE4"/>
<path d="M0 33.9089C0 39.1159 4.22106 43.337 9.42801 43.337V24.4809C4.22106 24.4809 0 28.702 0 33.9089Z" fill="#B4006E"/>
<path fill-rule="evenodd" clip-rule="evenodd" d="M9.42801 43.3191C14.635 43.3191 21.089 39.3641 21.089 34.1571C21.089 28.9502 14.635 24.4631 9.42801 24.4631V43.3191Z" fill="#EC3066"/>
<path d="M19.156 7.07872C17.3713 9.436 17.251 12.6791 17.4261 15.3946C17.5407 17.1705 19.0351 18.195 20.6874 17.534C21.9279 17.0378 24.9864 16.0106 28.708 14.8941C33.1939 13.5483 37.6128 11.9168 38.012 7.32684C38.5082 1.62041 36.5233 -0.73658 29.3282 1.49636C22.1332 3.72929 21.8258 3.55222 19.156 7.07872Z" fill="#EC3066"/>
</svg>
